Coordinates
version=1
nRows=8
nColumns=40
inDegrees=yes

Units are S.I. units (second, meters, Newtons, ...)
Angles are in degrees.

endheader
time	pelvis_tilt	pelvis_list	pelvis_rotation	pelvis_tx	pelvis_ty	pelvis_tz	hip_flexion_r	hip_adduction_r	hip_rotation_r	knee_angle_r	knee_angle_r_beta	ankle_angle_r	subtalar_angle_r	mtp_angle_r	hip_flexion_l	hip_adduction_l	hip_rotation_l	knee_angle_l	knee_angle_l_beta	ankle_angle_l	subtalar_angle_l	mtp_angle_l	lumbar_extension	lumbar_bending	lumbar_rotation	arm_flex_r	arm_add_r	arm_rot_r	elbow_flex_r	pro_sup_r	wrist_flex_r	wrist_dev_r	arm_flex_l	arm_add_l	arm_rot_l	elbow_flex_l	pro_sup_l	wrist_flex_l	wrist_dev_l
      9.28000000	     -2.57208850	     -6.31212322	      6.64653312	      1.06728029	      0.93029045	      0.48991125	     12.41258470	      4.07497322	    -19.64051501	     15.94543360	     15.94543360	      8.22361036	     -3.12670764	     -5.61418906	     30.30635167	    -13.13204574	      1.60828822	     68.49853339	     68.49853339	     10.42635754	    -18.65417518	     13.29357696	    -10.60691821	      7.52258461	      3.21884819	     13.66357278	    -15.81608578	     -6.76982534	     38.77125492	     45.60907075	      0.00000000	      0.00000000	      7.91290783	     -9.37962103	     -1.55287735	     50.39856803	     45.99866736	      0.00000000	      0.00000000
      9.29100000	     -2.67309228	     -6.29411004	      6.70820369	      1.06621461	      0.93095088	      0.49054344	     11.50286241	      4.31150484	    -19.65406342	     15.07293553	     15.07293553	      8.40328250	     -2.72558724	     -5.62035707	     31.79026226	    -13.07259081	      1.43646907	     66.75592778	     66.75592778	     10.56667451	    -18.69990928	     13.34502850	    -10.65344491	      7.37747924	      2.97710111	     16.15565283	    -15.72325726	     -6.75042234	     40.38691411	     45.56460866	      0.00000000	      0.00000000	      6.30810630	     -9.17394299	     -1.31803274	     48.44981736	     45.95491343	      0.00000000	      0.00000000
      9.30200000	     -2.72938914	     -6.27891429	      6.75013059	      1.06519905	      0.93162804	      0.49116046	     10.52499155	      4.56502168	    -19.71121465	     14.13649216	     14.13649216	      8.52712659	     -2.23040201	     -5.63962904	     33.00129961	    -13.01189370	      1.21675234	     64.69397915	     64.69397915	     10.59973609	    -18.71253578	     13.48078870	    -10.71966805	      7.22602707	      2.77007217	     18.54491012	    -15.65623003	     -6.58389807	     42.11273699	     45.50789802	      0.00000000	      0.00000000	      4.99457551	     -8.87828751	     -1.13488494	     45.97220265	     45.91581243	      0.00000000	      0.00000000
      9.31300000	     -2.81340575	     -6.27484469	      6.76990671	      1.06420218	      0.93210932	      0.49168078	      9.59623751	      4.79339426	    -19.84885739	     13.22954233	     13.22954233	      8.56413497	     -1.59851334	     -6.05178552	     34.07174570	    -12.93321927	      0.97143036	     62.39400789	     62.39400789	     10.57290009	    -18.72053339	     13.66447706	    -10.71832282	      7.12252305	      3.41403535	     20.12200505	    -16.39571273	     -5.54315222	     44.59619287	     45.38759893	      0.00000000	      0.00000000	      5.22633871	     -7.90005917	     -1.38242505	     40.53654256	     45.95470402	      0.00000000	      0.00000000
      9.32400000	     -2.87067916	     -6.27420991	      6.80531890	      1.06326547	      0.93250061	      0.49212657	      8.62931318	      5.05849965	    -19.82637597	     12.28818925	     12.28818925	      8.70500647	     -1.17451457	     -6.00296992	     34.94285354	    -12.80973190	      0.75951040	     59.82674153	     59.82674153	     10.51926204	    -18.71476521	     14.04948470	    -10.81478491	      7.00573680	      3.21368748	     22.45749749	    -16.29283957	     -5.52699550	     46.40300360	     45.33782597	      0.00000000	      0.00000000	      3.82575594	     -7.65419879	     -1.25222937	     38.63422626	     45.92192673	      0.00000000	      0.00000000
      9.33500000	     -2.96439607	     -6.27517986	      6.82140709	      1.06235810	      0.93270283	      0.49240397	      7.70144804	      5.28291944	    -19.94352615	     11.35418469	     11.35418469	      8.80409000	     -0.47163911	     -6.31688713	     35.67937119	    -12.63803623	      0.55756452	     56.98635035	     56.98635035	     10.38172562	    -18.67288101	     14.40161799	    -10.81269811	      6.92173971	      3.64819992	     24.08789044	    -16.85582901	     -4.95255701	     48.90092446	     45.24870902	      0.00000000	      0.00000000	      3.74056816	     -6.96132414	     -1.35981579	     34.26534993	     45.94699747	      0.00000000	      0.00000000
      9.34600000	     -3.07699665	     -6.24840829	      6.82511331	      1.06146174	      0.93277310	      0.49257090	      6.83037517	      5.47888799	    -19.90848163	     10.48624052	     10.48624052	      8.95182840	     -0.07488476	     -6.28495123	     36.26029473	    -12.38300197	      0.38046785	     53.87529180	     53.87529180	     10.18235893	    -18.56927082	     14.80070650	    -10.84956558	      6.76713418	      3.51811969	     26.32189919	    -16.70793085	     -5.02073843	     50.60068998	     45.20640154	      0.00000000	      0.00000000	      2.34136818	     -6.76477367	     -1.25752949	     32.76056123	     45.91349157	      0.00000000	      0.00000000
      9.35700000	     -3.20809795	     -6.32349329	      6.83858951	      1.06062144	      0.93253159	      0.49256528	      5.94523775	      5.75280384	    -20.14272830	      9.54054465	      9.54054465	      9.01374218	      0.81080913	     -6.69641892	     36.75044496	    -12.16111858	      0.34181180	     50.54443781	     50.54443781	      9.70842989	    -18.38640206	     14.26043923	    -10.81825158	      6.79527694	      3.88944454	     27.84765177	    -17.26913095	     -4.61059987	     53.56078806	     45.11652635	      0.00000000	      0.00000000	      2.13598805	     -6.18592807	     -1.24142500	     28.83101722	     45.92528384	      0.00000000	      0.00000000
